<?xml version="1.0" encoding="UTF-8"?><svg xmlns="http://www.w3.org/2000/svg" width="88" height="31" viewBox="0 0 88 31"><g id="Background"><rect width="88" height="31" fill="#1565c0"/></g><g id="_3D"><polygon points="88 0 88 31 0 31 2 29 86 29 86 2 88 0" fill="#263238" opacity=".5"/><polygon points="88 0 86 2 2 2 2 29 0 31 0 0 88 0" fill="#fff" opacity=".5"/></g><g id="Text"><path d="m43.8,6.94c1.57,0,2.78,1.2,2.78,3.03s-1.22,3.08-2.78,3.08c-.98,0-1.68-.44-2.06-.96v.86h-1.22v-7.95h1.22v2.91c.39-.54,1.13-.98,2.06-.98Zm-.27,1.06c-.91,0-1.79.72-1.79,1.99s.88,2,1.79,2,1.8-.74,1.8-2.02-.88-1.97-1.8-1.97Z" fill="#fff"/><path d="m49.02,12.96h-1.22v-5.92h1.22v.86c.34-.59.93-.96,1.77-.96v1.27h-.31c-.9,0-1.46.38-1.46,1.63v3.12Z" fill="#fff"/><path d="m54.46,13.05c-1.7,0-2.95-1.2-2.95-3.06s1.2-3.05,2.95-3.05,2.88,1.17,2.88,2.91c0,.2-.01.4-.04.6h-4.52c.09.98.78,1.57,1.69,1.57.75,0,1.17-.37,1.4-.83h1.32c-.33,1.03-1.27,1.86-2.72,1.86Zm-1.68-3.59h3.28c-.02-.91-.74-1.49-1.65-1.49-.83,0-1.49.56-1.62,1.49Z" fill="#fff"/><path d="m60.92,6.94c1,0,1.69.47,2.05.96v-.86h1.24v5.92h-1.24v-.88c-.38.5-1.08.98-2.07.98-1.54,0-2.77-1.26-2.77-3.08s1.24-3.03,2.79-3.03Zm.26,1.06c-.91,0-1.79.69-1.79,1.97s.88,2.02,1.79,2.02,1.79-.72,1.79-2-.87-1.99-1.79-1.99Z" fill="#fff"/><path d="m68.21,6.94c.77,0,1.59.37,2.04.92v-2.86h1.24v7.95h-1.24v-.89c-.38.54-1.08.99-2.05.99-1.56,0-2.79-1.26-2.79-3.08s1.24-3.03,2.8-3.03Zm.25,1.06c-.91,0-1.79.69-1.79,1.97s.88,2.02,1.79,2.02,1.79-.72,1.79-2-.87-1.99-1.79-1.99Z" fill="#fff"/><path d="m36.27,17.94c1.56,0,2.78,1.2,2.78,3.03s-1.22,3.08-2.78,3.08c-.98,0-1.68-.49-2.06-.96v3.67h-1.22v-8.73h1.22v.87c.38-.49,1.1-.97,2.06-.97Zm-.27,1.06c-.91,0-1.79.72-1.79,1.99s.88,2,1.79,2,1.8-.74,1.8-2.02-.88-1.97-1.8-1.97Z" fill="#fff"/><path d="m42.83,24.05c-1.69,0-2.96-1.2-2.96-3.06s1.33-3.05,3.02-3.05,3.02,1.19,3.02,3.05-1.38,3.06-3.07,3.06Zm0-1.06c.91,0,1.82-.66,1.82-2s-.87-1.99-1.78-1.99-1.75.64-1.75,1.99.79,2,1.72,2Z" fill="#fff"/><path d="m46.42,18.04h1.25l1.24,4.76,1.26-4.76h1.28l1.2,4.74,1.22-4.74h1.2l-1.84,5.92h-1.29l-1.19-4.37-1.19,4.37h-1.29l-1.85-5.92Z" fill="#fff"/><path d="m58.52,24.05c-1.7,0-2.95-1.2-2.95-3.06s1.2-3.05,2.95-3.05,2.88,1.17,2.88,2.91c0,.2-.01.4-.04.6h-4.52c.09.98.78,1.57,1.69,1.57.75,0,1.17-.37,1.4-.83h1.32c-.33,1.03-1.27,1.86-2.72,1.86Zm-1.68-3.59h3.28c-.02-.91-.74-1.49-1.65-1.49-.83,0-1.49.56-1.62,1.49Z" fill="#fff"/><path d="m63.82,23.96h-1.22v-5.92h1.22v.86c.34-.59.93-.96,1.77-.96v1.27h-.31c-.9,0-1.46.38-1.46,1.63v3.12Z" fill="#fff"/><path d="m69.27,24.05c-1.7,0-2.95-1.2-2.95-3.06s1.2-3.05,2.95-3.05,2.88,1.17,2.88,2.91c0,.2-.01.4-.04.6h-4.52c.09.98.78,1.57,1.69,1.57.75,0,1.17-.37,1.4-.83h1.32c-.33,1.03-1.27,1.86-2.72,1.86Zm-1.68-3.59h3.28c-.02-.91-.74-1.49-1.65-1.49-.83,0-1.49.56-1.62,1.49Z" fill="#fff"/><path d="m75.74,17.94c.77,0,1.59.37,2.04.92v-2.86h1.24v7.95h-1.24v-.89c-.38.54-1.08.99-2.05.99-1.56,0-2.79-1.26-2.79-3.08s1.24-3.03,2.8-3.03Zm.25,1.06c-.91,0-1.79.69-1.79,1.97s.88,2.02,1.79,2.02,1.79-.72,1.79-2-.87-1.99-1.79-1.99Z" fill="#fff"/></g><g id="Image"><path d="m8.63,26.99c-2.21,0-4.02-1.8-4.02-4.02v-8.39c-.64-1.34-.86-2.83-.63-4.33.51-3.33,3.32-5.94,6.69-6.22.21-.02.41-.03.62-.03,1.48,0,2.88.43,4.08,1.23,1.2-.8,2.6-1.23,4.08-1.23.2,0,.41,0,.62.03,3.37.28,6.18,2.89,6.69,6.22.23,1.5.01,2.98-.63,4.33v8.39c0,2.21-1.8,4.02-4.02,4.02h-13.48Z" fill="#957c67" stroke="#263238" stroke-linecap="round" stroke-linejoin="round" stroke-width="1.5"/><path d="m24.67,10.71c-.37-2.45-2.44-4.36-4.91-4.57-1.73-.14-3.31.53-4.39,1.67-1.09-1.14-2.66-1.81-4.39-1.67-2.47.2-4.54,2.12-4.91,4.57-.2,1.28.06,2.49.63,3.5v8.49c0,1.21.98,2.18,2.18,2.18h12.99c1.21,0,2.18-.98,2.18-2.18v-8.49c.57-1.01.82-2.22.63-3.5Z" fill="#ffe0b2"/><rect x="7.55" y="13.8" width="2.54" height="3.4" rx="1.27" ry="1.27" fill="#263238"/><rect x="20.65" y="13.8" width="2.54" height="3.4" rx="1.27" ry="1.27" fill="#263238"/><path d="m12.3,15.5v3.84c0,1.7,1.37,3.07,3.07,3.07s3.07-1.37,3.07-3.07v-3.84h-6.14Z" fill="#ef5350" stroke="#263238" stroke-miterlimit="10" stroke-width="1.5"/></g></svg>