<?xml version="1.0" encoding="UTF-8"?><svg xmlns="http://www.w3.org/2000/svg" width="88" height="31" viewBox="0 0 88 31"><g id="Background"><rect width="88" height="31" fill="#4527a0"/></g><g id="_3D"><polygon points="88 0 88 31 0 31 2 29 86 29 86 2 88 0" fill="#263238" opacity=".5"/><polygon points="88 0 86 2 2 2 2 29 0 31 0 0 88 0" fill="#fff" opacity=".5"/></g><g id="Text"><path d="m41.52,6.94c1.45,0,2.4.72,2.73,1.97h-1.32c-.2-.57-.68-.93-1.41-.93-.99,0-1.64.73-1.64,2.02s.66,2.03,1.64,2.03c.73,0,1.18-.32,1.41-.93h1.32c-.33,1.16-1.28,1.97-2.73,1.97-1.7,0-2.9-1.2-2.9-3.06s1.2-3.05,2.9-3.05Z" fill="#fff"/><path d="m48.04,13.05c-1.69,0-2.96-1.2-2.96-3.06s1.33-3.05,3.02-3.05,3.02,1.19,3.02,3.05-1.38,3.06-3.07,3.06Zm0-1.06c.91,0,1.82-.66,1.82-2s-.87-1.99-1.78-1.99-1.75.64-1.75,1.99.79,2,1.72,2Z" fill="#fff"/><path d="m54.89,13.05c-1.69,0-2.96-1.2-2.96-3.06s1.33-3.05,3.02-3.05,3.02,1.19,3.02,3.05-1.38,3.06-3.07,3.06Zm0-1.06c.91,0,1.82-.66,1.82-2s-.87-1.99-1.78-1.99-1.75.64-1.75,1.99.79,2,1.72,2Z" fill="#fff"/><path d="m59.17,5.01h1.22v4.62l2.15-2.59h1.7l-2.73,2.96,2.73,2.95h-1.65l-2.19-2.55v2.55h-1.22v-7.95Z" fill="#fff"/><path d="m64.96,5.47c0-.44.34-.78.78-.78s.77.34.77.78-.34.78-.77.78-.78-.34-.78-.78Zm.16,1.57h1.22v5.92h-1.22v-5.92Z" fill="#fff"/><path d="m70.5,13.05c-1.7,0-2.95-1.2-2.95-3.06s1.2-3.05,2.95-3.05,2.88,1.17,2.88,2.91c0,.2-.01.4-.04.6h-4.52c.09.98.78,1.57,1.69,1.57.75,0,1.17-.37,1.4-.83h1.32c-.33,1.03-1.27,1.86-2.72,1.86Zm-1.68-3.59h3.28c-.02-.91-.74-1.49-1.65-1.49-.83,0-1.49.56-1.62,1.49Z" fill="#fff"/><path d="m36.27,17.94c1.56,0,2.78,1.2,2.78,3.03s-1.22,3.08-2.78,3.08c-.98,0-1.68-.49-2.06-.96v3.67h-1.22v-8.73h1.22v.87c.38-.49,1.1-.97,2.06-.97Zm-.27,1.06c-.91,0-1.79.72-1.79,1.99s.88,2,1.79,2,1.8-.74,1.8-2.02-.88-1.97-1.8-1.97Z" fill="#fff"/><path d="m42.83,24.05c-1.69,0-2.96-1.2-2.96-3.06s1.33-3.05,3.02-3.05,3.02,1.19,3.02,3.05-1.38,3.06-3.07,3.06Zm0-1.06c.91,0,1.82-.66,1.82-2s-.87-1.99-1.78-1.99-1.75.64-1.75,1.99.79,2,1.72,2Z" fill="#fff"/><path d="m46.42,18.04h1.25l1.24,4.76,1.26-4.76h1.28l1.2,4.74,1.22-4.74h1.2l-1.84,5.92h-1.29l-1.19-4.37-1.19,4.37h-1.29l-1.85-5.92Z" fill="#fff"/><path d="m58.52,24.05c-1.7,0-2.95-1.2-2.95-3.06s1.2-3.05,2.95-3.05,2.88,1.17,2.88,2.91c0,.2-.01.4-.04.6h-4.52c.09.98.78,1.57,1.69,1.57.75,0,1.17-.37,1.4-.83h1.32c-.33,1.03-1.27,1.86-2.72,1.86Zm-1.68-3.59h3.28c-.02-.91-.74-1.49-1.65-1.49-.83,0-1.49.56-1.62,1.49Z" fill="#fff"/><path d="m63.82,23.96h-1.22v-5.92h1.22v.86c.34-.59.93-.96,1.77-.96v1.27h-.31c-.9,0-1.46.38-1.46,1.63v3.12Z" fill="#fff"/><path d="m69.27,24.05c-1.7,0-2.95-1.2-2.95-3.06s1.2-3.05,2.95-3.05,2.88,1.17,2.88,2.91c0,.2-.01.4-.04.6h-4.52c.09.98.78,1.57,1.69,1.57.75,0,1.17-.37,1.4-.83h1.32c-.33,1.03-1.27,1.86-2.72,1.86Zm-1.68-3.59h3.28c-.02-.91-.74-1.49-1.65-1.49-.83,0-1.49.56-1.62,1.49Z" fill="#fff"/><path d="m75.74,17.94c.77,0,1.59.37,2.04.92v-2.86h1.24v7.95h-1.24v-.89c-.38.54-1.08.99-2.05.99-1.56,0-2.79-1.26-2.79-3.08s1.24-3.03,2.8-3.03Zm.25,1.06c-.91,0-1.79.69-1.79,1.97s.88,2.02,1.79,2.02,1.79-.72,1.79-2-.87-1.99-1.79-1.99Z" fill="#fff"/></g><g id="Image"><path d="m24.5,19.63c.74.42.97,1.36.51,2.07-.95,1.48-2.26,2.77-3.9,3.71-2.73,1.59-5.85,1.91-8.69,1.16-2.83-.75-5.38-2.59-6.96-5.33-1.59-2.73-1.92-5.85-1.16-8.69.75-2.83,2.59-5.38,5.32-6.96,2.35-1.37,4.99-1.79,7.49-1.41.72.11,1.21.81,1.09,1.53-.04.26-.06.52-.06.79,0,.97.29,1.87.76,2.64-.37.72-.61,1.52-.61,2.38,0,2.35,1.61,4.31,3.78,4.89.33,1.38,1.23,2.54,2.43,3.22Z" fill="#977763" stroke="#263238" stroke-linecap="round" stroke-linejoin="round" stroke-width="1.5"/><path d="m16.01,9.3c0,.42.07.82-.21,1.1s-.68.65-1.1.65-.72-.48-.99-.76-.51-.57-.51-.99.32-.63.59-.91.49-.77.91-.77.7.43.97.71.33.55.33.97Z" fill="#5b453b"/><path d="m16.01,9.3c0,.42.07.82-.21,1.1s-.68.65-1.1.65-.72-.48-.99-.76-.51-.57-.51-.99.32-.63.59-.91.49-.77.91-.77.7.43.97.71.33.55.33.97Z" fill="none" stroke="#263238" stroke-miterlimit="10" stroke-width="1.5"/><path d="m10.62,4.85c.64.16,1.09.64.93,1.27s-.86,1.19-1.5,1.03-.89-.94-.74-1.58.66-.88,1.3-.73Z" fill="#5b453b"/><path d="m10.62,4.85c.64.16,1.09.64.93,1.27s-.86,1.19-1.5,1.03-.89-.94-.74-1.58.66-.88,1.3-.73Z" fill="none" stroke="#263238" stroke-miterlimit="10" stroke-width="1.5"/><path d="m10.59,26.47c-.39-.16-.79-.25-.94-.61s-.35-.87-.19-1.26.72-.48,1.08-.63.72-.26,1.11-.1.47.53.62.89.53.74.37,1.13-.66.49-1.02.64-.64.1-1.03-.06Z" fill="#5b453b"/><path d="m10.59,26.47c-.39-.16-.79-.25-.94-.61s-.35-.87-.19-1.26.72-.48,1.08-.63.72-.26,1.11-.1.47.53.62.89.53.74.37,1.13-.66.49-1.02.64-.64.1-1.03-.06Z" fill="none" stroke="#263238" stroke-miterlimit="10" stroke-width="1.5"/><path d="m19.62,23.38c.27-.52.45-1.06.96-1.22s1.25-.36,1.77-.09.57,1.06.73,1.57.26,1.03-.01,1.55-.8.58-1.31.74-1.1.63-1.61.36-.58-.98-.74-1.5-.05-.89.22-1.41Z" fill="#5b453b"/><path d="m19.62,23.38c.27-.52.45-1.06.96-1.22s1.25-.36,1.77-.09.57,1.06.73,1.57.26,1.03-.01,1.55-.8.58-1.31.74-1.1.63-1.61.36-.58-.98-.74-1.5-.05-.89.22-1.41Z" fill="none" stroke="#263238" stroke-miterlimit="10" stroke-width="1.5"/><path d="m22.1,15.1c.3.33.63.59.61,1s-.07.98-.4,1.28-.9.13-1.31.11-.8-.08-1.1-.41-.2-.72-.18-1.13-.16-.94.17-1.24.85-.16,1.26-.14.65.2.95.52Z" fill="#5b453b"/><path d="m22.1,15.1c.3.33.63.59.61,1s-.07.98-.4,1.28-.9.13-1.31.11-.8-.08-1.1-.41-.2-.72-.18-1.13-.16-.94.17-1.24.85-.16,1.26-.14.65.2.95.52Z" fill="none" stroke="#263238" stroke-miterlimit="10" stroke-width="1.5"/><path d="m11.62,17.79c.55.22,1.11.35,1.32.85s.49,1.23.27,1.78-1.01.68-1.51.89-1.01.36-1.56.14-.66-.75-.87-1.25-.74-1.05-.52-1.59.93-.68,1.44-.9.9-.14,1.45.08Z" fill="#5b453b"/><path d="m11.62,17.79c.55.22,1.11.35,1.32.85s.49,1.23.27,1.78-1.01.68-1.51.89-1.01.36-1.56.14-.66-.75-.87-1.25-.74-1.05-.52-1.59.93-.68,1.44-.9.9-.14,1.45.08Z" fill="none" stroke="#263238" stroke-miterlimit="10" stroke-width="1.5"/><path d="m5.03,14.77c-.72.03-1.34-.35-1.37-1.07s.55-1.52,1.27-1.55,1.23.73,1.26,1.45-.44,1.14-1.16,1.16Z" fill="#5b453b"/><path d="m5.03,14.77c-.72.03-1.34-.35-1.37-1.07s.55-1.52,1.27-1.55,1.23.73,1.26,1.45-.44,1.14-1.16,1.16Z" fill="none" stroke="#263238" stroke-miterlimit="10" stroke-width="1.5"/><path d="m27.6,26.61c-.72.03-1.34-.35-1.37-1.07s.55-1.52,1.27-1.55,1.23.73,1.26,1.45-.44,1.14-1.16,1.16Z" fill="#977763"/><path d="m27.6,26.61c-.72.03-1.34-.35-1.37-1.07s.55-1.52,1.27-1.55,1.23.73,1.26,1.45-.44,1.14-1.16,1.16Z" fill="none" stroke="#263238" stroke-miterlimit="10" stroke-width="1.5"/><path d="m10.74,14.3c-.72.03-1.34-.35-1.37-1.07s.55-1.52,1.27-1.55,1.23.73,1.26,1.45-.44,1.14-1.16,1.16Z" fill="#5b453b"/><path d="m10.74,14.3c-.72.03-1.34-.35-1.37-1.07s.55-1.52,1.27-1.55,1.23.73,1.26,1.45-.44,1.14-1.16,1.16Z" fill="none" stroke="#263238" stroke-miterlimit="10" stroke-width="1.5"/></g></svg>