<?xml version="1.0" encoding="UTF-8"?><svg xmlns="http://www.w3.org/2000/svg" width="88" height="31" viewBox="0 0 88 31"><g id="Background"><rect width="88" height="31" fill="#fff"/></g><g id="_3D"><polygon points="88 0 88 31 0 31 2 29 86 29 86 2 88 0" fill="#263238" opacity=".5"/><polygon points="88 0 86 2 2 2 2 29 0 31 0 0 88 0" fill="#fff" opacity=".5"/></g><g id="Text"><path d="m43.17,6.94c.77,0,1.59.37,2.04.92v-2.86h1.24v7.95h-1.24v-.89c-.38.54-1.08.99-2.05.99-1.56,0-2.79-1.26-2.79-3.08s1.24-3.03,2.8-3.03Zm.25,1.06c-.91,0-1.79.69-1.79,1.97s.88,2.02,1.79,2.02,1.79-.72,1.79-2-.87-1.99-1.79-1.99Z" fill="#263238"/><path d="m50.62,13.05c-1.69,0-2.96-1.2-2.96-3.06s1.33-3.05,3.02-3.05,3.02,1.19,3.02,3.05-1.38,3.06-3.07,3.06Zm0-1.06c.91,0,1.82-.66,1.82-2s-.87-1.99-1.78-1.99-1.75.64-1.75,1.99.79,2,1.72,2Z" fill="#263238"/><path d="m59.1,9.65c0-1.08-.59-1.64-1.48-1.64s-1.49.56-1.49,1.64v3.31h-1.22v-5.92h1.22v.68c.4-.48,1.05-.77,1.76-.77,1.39,0,2.43.87,2.43,2.52v3.49h-1.21v-3.31Z" fill="#263238"/><path d="m67.23,12.96h-1.22v-.71c-.39.5-1.05.79-1.75.79-1.39,0-2.44-.87-2.44-2.52v-3.48h1.21v3.3c0,1.08.59,1.64,1.48,1.64s1.49-.56,1.49-1.64v-3.3h1.22v5.92Z" fill="#263238"/><path d="m69.03,8.04h-.7v-1h.7v-1.47h1.24v1.47h1.44v1h-1.44v3.28c0,.44.17.62.69.62h.75v1.02h-.97c-1.05,0-1.71-.44-1.71-1.64v-3.28Z" fill="#263238"/><path d="m36.27,17.94c1.56,0,2.78,1.2,2.78,3.03s-1.22,3.08-2.78,3.08c-.98,0-1.68-.49-2.06-.96v3.67h-1.22v-8.73h1.22v.87c.38-.49,1.1-.97,2.06-.97Zm-.27,1.06c-.91,0-1.79.72-1.79,1.99s.88,2,1.79,2,1.8-.74,1.8-2.02-.88-1.97-1.8-1.97Z" fill="#263238"/><path d="m42.83,24.05c-1.69,0-2.96-1.2-2.96-3.06s1.33-3.05,3.02-3.05,3.02,1.19,3.02,3.05-1.38,3.06-3.07,3.06Zm0-1.06c.91,0,1.82-.66,1.82-2s-.87-1.99-1.78-1.99-1.75.64-1.75,1.99.79,2,1.72,2Z" fill="#263238"/><path d="m46.42,18.04h1.25l1.24,4.76,1.26-4.76h1.28l1.2,4.74,1.22-4.74h1.2l-1.84,5.92h-1.29l-1.19-4.37-1.19,4.37h-1.29l-1.85-5.92Z" fill="#263238"/><path d="m58.52,24.05c-1.7,0-2.95-1.2-2.95-3.06s1.2-3.05,2.95-3.05,2.88,1.17,2.88,2.91c0,.2-.01.4-.04.6h-4.52c.09.98.78,1.57,1.69,1.57.75,0,1.17-.37,1.4-.83h1.32c-.33,1.03-1.27,1.86-2.72,1.86Zm-1.68-3.59h3.28c-.02-.91-.74-1.49-1.65-1.49-.83,0-1.49.56-1.62,1.49Z" fill="#263238"/><path d="m63.82,23.96h-1.22v-5.92h1.22v.86c.34-.59.93-.96,1.77-.96v1.27h-.31c-.9,0-1.46.38-1.46,1.63v3.12Z" fill="#263238"/><path d="m69.27,24.05c-1.7,0-2.95-1.2-2.95-3.06s1.2-3.05,2.95-3.05,2.88,1.17,2.88,2.91c0,.2-.01.4-.04.6h-4.52c.09.98.78,1.57,1.69,1.57.75,0,1.17-.37,1.4-.83h1.32c-.33,1.03-1.27,1.86-2.72,1.86Zm-1.68-3.59h3.28c-.02-.91-.74-1.49-1.65-1.49-.83,0-1.49.56-1.62,1.49Z" fill="#263238"/><path d="m75.74,17.94c.77,0,1.59.37,2.04.92v-2.86h1.24v7.95h-1.24v-.89c-.38.54-1.08.99-2.05.99-1.56,0-2.79-1.26-2.79-3.08s1.24-3.03,2.8-3.03Zm.25,1.06c-.91,0-1.79.69-1.79,1.97s.88,2.02,1.79,2.02,1.79-.72,1.79-2-.87-1.99-1.79-1.99Z" fill="#263238"/></g><g id="Image"><path d="m15.37,26.96c-3.16,0-6.03-1.28-8.1-3.36s-3.36-4.94-3.36-8.1,1.28-6.03,3.36-8.1,4.94-3.36,8.1-3.36,6.03,1.28,8.1,3.36,3.36,4.94,3.36,8.1-1.28,6.03-3.36,8.1-4.94,3.36-8.1,3.36Zm3.82-11.46c0-1.05-.43-2.01-1.12-2.7s-1.65-1.12-2.7-1.12-2.01.43-2.7,1.12-1.12,1.65-1.12,2.7.43,2.01,1.12,2.7,1.65,1.12,2.7,1.12,2.01-.43,2.7-1.12,1.12-1.65,1.12-2.7Z" fill="#f48fb1" stroke="#263238" stroke-miterlimit="10" stroke-width="1.5"/><polyline points="14.27 7.08 15.1 7.57 15.94 8.05" fill="none" stroke="#fce4ec" stroke-linecap="round" stroke-linejoin="round" stroke-width="1.5"/><polyline points="9.9 10.3 10.8 9.96 11.7 9.61" fill="none" stroke="#fce4ec" stroke-linecap="round" stroke-linejoin="round" stroke-width="1.5"/><polyline points="23.4 13.09 23.3 14.05 23.19 15" fill="none" stroke="#fce4ec" stroke-linecap="round" stroke-linejoin="round" stroke-width="1.5"/><polyline points="19.75 10.23 20.31 9.45 20.87 8.67" fill="none" stroke="#fce4ec" stroke-linecap="round" stroke-linejoin="round" stroke-width="1.5"/><polyline points="7.22 12.66 8.05 13.14 8.89 13.62" fill="none" stroke="#fce4ec" stroke-linecap="round" stroke-linejoin="round" stroke-width="1.5"/><polyline points="21.05 19.46 21.97 19.75 22.89 20.04" fill="none" stroke="#fce4ec" stroke-linecap="round" stroke-linejoin="round" stroke-width="1.5"/><polyline points="16.38 22.98 17.1 23.63 17.81 24.27" fill="none" stroke="#fce4ec" stroke-linecap="round" stroke-linejoin="round" stroke-width="1.5"/><polyline points="8.47 19.68 8.07 18.81 7.67 17.93" fill="none" stroke="#fce4ec" stroke-linecap="round" stroke-linejoin="round" stroke-width="1.5"/><polyline points="11.32 22.42 12.21 22.04 13.1 21.67" fill="none" stroke="#fce4ec" stroke-linecap="round" stroke-linejoin="round" stroke-width="1.5"/></g></svg>