<svg id="visual" viewBox="0 0 900 600" width="900" height="600" xmlns="http://www.w3.org/2000/svg" xmlns:xlink="http://www.w3.org/1999/xlink" version="1.1"><rect x="0" y="0" width="900" height="600" fill="#050709"></rect><path d="M0 369L21.5 369C43 369 86 369 128.8 369C171.7 369 214.3 369 257.2 369C300 369 343 369 385.8 369C428.7 369 471.3 369 514.2 369C557 369 600 369 642.8 369C685.7 369 728.3 369 771.2 369C814 369 857 369 878.5 369L900 369L900 601L878.5 601C857 601 814 601 771.2 601C728.3 601 685.7 601 642.8 601C600 601 557 601 514.2 601C471.3 601 428.7 601 385.8 601C343 601 300 601 257.2 601C214.3 601 171.7 601 128.8 601C86 601 43 601 21.5 601L0 601Z" fill="#ff6347"></path><path d="M0 414L21.5 414C43 414 86 414 128.8 414C171.7 414 214.3 414 257.2 414C300 414 343 414 385.8 414C428.7 414 471.3 414 514.2 414C557 414 600 414 642.8 414C685.7 414 728.3 414 771.2 414C814 414 857 414 878.5 414L900 414L900 601L878.5 601C857 601 814 601 771.2 601C728.3 601 685.7 601 642.8 601C600 601 557 601 514.2 601C471.3 601 428.7 601 385.8 601C343 601 300 601 257.2 601C214.3 601 171.7 601 128.8 601C86 601 43 601 21.5 601L0 601Z" fill="#c23f6d"></path><path d="M0 459L21.5 459C43 459 86 459 128.8 459C171.7 459 214.3 459 257.2 459C300 459 343 459 385.8 459C428.7 459 471.3 459 514.2 459C557 459 600 459 642.8 459C685.7 459 728.3 459 771.2 459C814 459 857 459 878.5 459L900 459L900 601L878.5 601C857 601 814 601 771.2 601C728.3 601 685.7 601 642.8 601C600 601 557 601 514.2 601C471.3 601 428.7 601 385.8 601C343 601 300 601 257.2 601C214.3 601 171.7 601 128.8 601C86 601 43 601 21.5 601L0 601Z" fill="#6c386c"></path><path d="M0 504L21.5 504C43 504 86 504 128.8 504C171.7 504 214.3 504 257.2 504C300 504 343 504 385.8 504C428.7 504 471.3 504 514.2 504C557 504 600 504 642.8 504C685.7 504 728.3 504 771.2 504C814 504 857 504 878.5 504L900 504L900 601L878.5 601C857 601 814 601 771.2 601C728.3 601 685.7 601 642.8 601C600 601 557 601 514.2 601C471.3 601 428.7 601 385.8 601C343 601 300 601 257.2 601C214.3 601 171.7 601 128.8 601C86 601 43 601 21.5 601L0 601Z" fill="#242843"></path><path d="M0 549L21.5 549C43 549 86 549 128.8 549C171.7 549 214.3 549 257.2 549C300 549 343 549 385.8 549C428.7 549 471.3 549 514.2 549C557 549 600 549 642.8 549C685.7 549 728.3 549 771.2 549C814 549 857 549 878.5 549L900 549L900 601L878.5 601C857 601 814 601 771.2 601C728.3 601 685.7 601 642.8 601C600 601 557 601 514.2 601C471.3 601 428.7 601 385.8 601C343 601 300 601 257.2 601C214.3 601 171.7 601 128.8 601C86 601 43 601 21.5 601L0 601Z" fill="#050709"></path></svg>