<?xml version="1.0" encoding="UTF-8"?><svg xmlns="http://www.w3.org/2000/svg" width="88" height="31" viewBox="0 0 88 31"><g id="Background"><rect width="88" height="31" fill="#f8bbd0"/></g><g id="_3D"><polygon points="88 0 88 31 0 31 2 29 86 29 86 2 88 0" fill="#263238" opacity=".5"/><polygon points="88 0 86 2 2 2 2 29 0 31 0 0 88 0" fill="#fff" opacity=".5"/></g><g id="Text"><path d="m45.74,9.65c0-1.08-.59-1.64-1.48-1.64s-1.49.56-1.49,1.64v3.31h-1.22v-5.92h1.22v.68c.4-.48,1.05-.77,1.76-.77,1.39,0,2.43.87,2.43,2.52v3.49h-1.21v-3.31Z" fill="#263238"/><path d="m51.06,13.05c-1.7,0-2.95-1.2-2.95-3.06s1.2-3.05,2.95-3.05,2.88,1.17,2.88,2.91c0,.2-.01.4-.04.6h-4.52c.09.98.78,1.57,1.69,1.57.75,0,1.17-.37,1.4-.83h1.32c-.33,1.03-1.27,1.86-2.72,1.86Zm-1.68-3.59h3.28c-.02-.91-.74-1.49-1.65-1.49-.83,0-1.49.56-1.62,1.49Z" fill="#263238"/><path d="m55.75,7.04l1.68,4.82,1.68-4.82h1.3l-2.26,5.92h-1.46l-2.25-5.92h1.31Z" fill="#263238"/><path d="m63.87,13.05c-1.7,0-2.95-1.2-2.95-3.06s1.2-3.05,2.95-3.05,2.88,1.17,2.88,2.91c0,.2-.01.4-.04.6h-4.52c.09.98.78,1.57,1.69,1.57.75,0,1.17-.37,1.4-.83h1.32c-.33,1.03-1.27,1.86-2.72,1.86Zm-1.68-3.59h3.28c-.02-.91-.74-1.49-1.65-1.49-.83,0-1.49.56-1.62,1.49Z" fill="#263238"/><path d="m69.17,12.96h-1.22v-5.92h1.22v.86c.34-.59.93-.96,1.77-.96v1.27h-.31c-.9,0-1.46.38-1.46,1.63v3.12Z" fill="#263238"/><path d="m45.15,17.94c1.57,0,2.78,1.2,2.78,3.03s-1.22,3.08-2.78,3.08c-.98,0-1.68-.44-2.06-.96v.86h-1.22v-7.95h1.22v2.91c.39-.54,1.13-.98,2.06-.98Zm-.27,1.06c-.91,0-1.79.72-1.79,1.99s.88,2,1.79,2,1.8-.74,1.8-2.02-.88-1.97-1.8-1.97Z" fill="#263238"/><path d="m53.2,18.04h1.27l-3.63,8.7h-1.27l1.2-2.88-2.33-5.82h1.36l1.67,4.51,1.73-4.51Z" fill="#263238"/><path d="m60.57,17.94c1,0,1.69.47,2.05.96v-.86h1.24v5.92h-1.24v-.88c-.38.5-1.08.98-2.07.98-1.54,0-2.77-1.26-2.77-3.08s1.24-3.03,2.79-3.03Zm.26,1.06c-.91,0-1.79.69-1.79,1.97s.88,2.02,1.79,2.02,1.79-.72,1.79-2-.87-1.99-1.79-1.99Z" fill="#263238"/><path d="m65.3,16.47c0-.44.34-.78.78-.78s.77.34.77.78-.34.78-.77.78-.78-.34-.78-.78Zm.16,1.57h1.22v5.92h-1.22v-5.92Z" fill="#263238"/><path d="m69.22,24.03c-.44,0-.78-.34-.78-.78s.34-.78.78-.78.77.34.77.78-.34.78-.77.78Zm-.69-7.54h1.3l-.14,5.21h-1.02l-.14-5.21Z" fill="#263238"/><path d="m5.07,5.2h0c2.77,0,5.02,2.25,5.02,5.02v5.28h-5.02V5.2h0Z" fill="#b0bec5" stroke="#263238" stroke-miterlimit="10" stroke-width="1.5"/><path d="m20.65,5.2h5.02v5.28c0,2.77-2.25,5.02-5.02,5.02h0V5.2h0Z" transform="translate(46.31 20.7) rotate(-180)" fill="#b0bec5" stroke="#263238" stroke-miterlimit="10" stroke-width="1.5"/></g><g id="Image"><circle cx="15.37" cy="15.5" r="10.3" fill="#b0bec5" stroke="#263238" stroke-miterlimit="10" stroke-width="1.5"/><rect x="7.55" y="13.8" width="2.54" height="3.4" rx="1.27" ry="1.27" fill="#263238"/><rect x="20.65" y="13.8" width="2.54" height="3.4" rx="1.27" ry="1.27" fill="#263238"/><path d="m18.44,16.27c0,.85-.69,1.53-1.53,1.53s-1.53-.69-1.53-1.53c0,.85-.69,1.53-1.53,1.53s-1.53-.69-1.53-1.53" fill="none" stroke="#263238" stroke-miterlimit="10" stroke-width="1.5"/><line x1="15.37" y1="16.27" x2="15.37" y2="14.85" fill="none" stroke="#263238" stroke-miterlimit="10" stroke-width="1.5"/></g></svg>