<?xml version="1.0" encoding="UTF-8"?><svg xmlns="http://www.w3.org/2000/svg" width="88" height="31" viewBox="0 0 88 31"><g id="Background"><rect y="0" width="88" height="31" fill="#b39ddb"/></g><g id="_3D"><polygon points="88 0 88 31 0 31 2 29 86 29 86 2 88 0" fill="#263238" opacity=".5"/><polygon points="88 0 86 2 2 2 2 29 0 31 0 0 88 0" fill="#fff" opacity=".5"/></g><g id="Text"><path d="m36.18,6.94c1.56,0,2.78,1.2,2.78,3.03s-1.22,3.08-2.78,3.08c-.98,0-1.68-.49-2.06-.96v3.67h-1.22V7.04h1.22v.87c.38-.49,1.1-.97,2.06-.97Zm-.27,1.06c-.91,0-1.79.72-1.79,1.99s.88,2,1.79,2,1.8-.74,1.8-2.02-.88-1.97-1.8-1.97Z" fill="#263238"/><path d="m42.56,6.94c1,0,1.69.47,2.05.96v-.86h1.24v5.92h-1.24v-.88c-.38.5-1.08.98-2.07.98-1.54,0-2.77-1.26-2.77-3.08s1.24-3.03,2.79-3.03Zm.26,1.06c-.91,0-1.79.69-1.79,1.97s.88,2.02,1.79,2.02,1.79-.72,1.79-2-.87-1.99-1.79-1.99Z" fill="#263238"/><path d="m51.65,9.65c0-1.08-.59-1.64-1.48-1.64s-1.49.56-1.49,1.64v3.31h-1.22v-5.92h1.22v.68c.4-.48,1.05-.77,1.76-.77,1.39,0,2.43.87,2.43,2.52v3.49h-1.21v-3.31Z" fill="#263238"/><path d="m56.91,6.94c1.45,0,2.4.72,2.73,1.97h-1.32c-.2-.57-.68-.93-1.41-.93-.99,0-1.64.73-1.64,2.02s.66,2.03,1.64,2.03c.73,0,1.18-.32,1.41-.93h1.32c-.33,1.16-1.28,1.97-2.73,1.97-1.7,0-2.9-1.2-2.9-3.06s1.2-3.05,2.9-3.05Z" fill="#263238"/><path d="m63.25,6.94c1,0,1.69.47,2.05.96v-.86h1.24v5.92h-1.24v-.88c-.38.5-1.08.98-2.07.98-1.54,0-2.77-1.26-2.77-3.08s1.24-3.03,2.79-3.03Zm.26,1.06c-.91,0-1.79.69-1.79,1.97s.88,2.02,1.79,2.02,1.79-.72,1.79-2-.87-1.99-1.79-1.99Z" fill="#263238"/><path d="m68.14,5.01h1.22v4.62l2.15-2.59h1.7l-2.73,2.96,2.73,2.95h-1.65l-2.19-2.55v2.55h-1.22v-7.95Z" fill="#263238"/><path d="m76.64,13.05c-1.7,0-2.95-1.2-2.95-3.06s1.2-3.05,2.95-3.05,2.88,1.17,2.88,2.91c0,.2-.01.4-.04.6h-4.52c.09.98.78,1.57,1.69,1.57.75,0,1.17-.37,1.4-.83h1.32c-.33,1.03-1.27,1.86-2.72,1.86Zm-1.68-3.59h3.28c-.02-.91-.74-1.49-1.65-1.49-.83,0-1.49.56-1.62,1.49Z" fill="#263238"/><path d="m36.27,17.94c1.56,0,2.78,1.2,2.78,3.03s-1.22,3.08-2.78,3.08c-.98,0-1.68-.49-2.06-.96v3.67h-1.22v-8.73h1.22v.87c.38-.49,1.1-.97,2.06-.97Zm-.27,1.06c-.91,0-1.79.72-1.79,1.99s.88,2,1.79,2,1.8-.74,1.8-2.02-.88-1.97-1.8-1.97Z" fill="#263238"/><path d="m42.83,24.05c-1.69,0-2.96-1.2-2.96-3.06s1.33-3.05,3.02-3.05,3.02,1.19,3.02,3.05-1.38,3.06-3.07,3.06Zm0-1.06c.91,0,1.82-.66,1.82-2s-.87-1.99-1.78-1.99-1.75.64-1.75,1.99.79,2,1.72,2Z" fill="#263238"/><path d="m46.42,18.04h1.25l1.24,4.76,1.26-4.76h1.28l1.2,4.74,1.22-4.74h1.2l-1.84,5.92h-1.29l-1.19-4.37-1.19,4.37h-1.29l-1.85-5.92Z" fill="#263238"/><path d="m58.52,24.05c-1.7,0-2.95-1.2-2.95-3.06s1.2-3.05,2.95-3.05,2.88,1.17,2.88,2.91c0,.2-.01.4-.04.6h-4.52c.09.98.78,1.57,1.69,1.57.75,0,1.17-.37,1.4-.83h1.32c-.33,1.03-1.27,1.86-2.72,1.86Zm-1.68-3.59h3.28c-.02-.91-.74-1.49-1.65-1.49-.83,0-1.49.56-1.62,1.49Z" fill="#263238"/><path d="m63.82,23.96h-1.22v-5.92h1.22v.86c.34-.59.93-.96,1.77-.96v1.27h-.31c-.9,0-1.46.38-1.46,1.63v3.12Z" fill="#263238"/><path d="m69.27,24.05c-1.7,0-2.95-1.2-2.95-3.06s1.2-3.05,2.95-3.05,2.88,1.17,2.88,2.91c0,.2-.01.4-.04.6h-4.52c.09.98.78,1.57,1.69,1.57.75,0,1.17-.37,1.4-.83h1.32c-.33,1.03-1.27,1.86-2.72,1.86Zm-1.68-3.59h3.28c-.02-.91-.74-1.49-1.65-1.49-.83,0-1.49.56-1.62,1.49Z" fill="#263238"/><path d="m75.74,17.94c.77,0,1.59.37,2.04.92v-2.86h1.24v7.95h-1.24v-.89c-.38.54-1.08.99-2.05.99-1.56,0-2.79-1.26-2.79-3.08s1.24-3.03,2.8-3.03Zm.25,1.06c-.91,0-1.79.69-1.79,1.97s.88,2.02,1.79,2.02,1.79-.72,1.79-2-.87-1.99-1.79-1.99Z" fill="#263238"/></g><g id="Image"><ellipse cx="16.67" cy="23.54" rx="12.17" ry="3.13" fill="#fff" stroke="#263238" stroke-miterlimit="10" stroke-width="1.5"/><ellipse cx="16.67" cy="20.22" rx="11.27" ry="3.13" fill="#ffcc80" stroke="#263238" stroke-miterlimit="10" stroke-width="1.5"/><ellipse cx="16.67" cy="16.37" rx="11.27" ry="3.13" fill="#ffcc80" stroke="#263238" stroke-miterlimit="10" stroke-width="1.5"/><ellipse cx="16.67" cy="12.52" rx="11.27" ry="3.13" fill="#ffcc80" stroke="#263238" stroke-miterlimit="10" stroke-width="1.5"/><path d="m25.84,9.65c0-2.2-4.11-2.56-9.17-2.56s-9.17.36-9.17,2.56c0,1.18,1.19,1.83,3.07,2.18.88.16,1.53.94,1.53,1.84v1.46c0,.93.64,1.8,1.56,1.95,1.17.19,2.19-.71,2.19-1.85v-1.05c0-1.09.88-1.98,1.97-2h0c1.12-.02,2.03.88,2.03,2v5.24c0,.87.59,1.67,1.45,1.81,1.09.18,2.04-.66,2.04-1.72v-5.01c0-1.35.57-2.69,1.68-3.44.53-.35.82-.81.82-1.4Z" fill="#ffe0b2" stroke="#263238" stroke-linecap="round" stroke-linejoin="round" stroke-width="1.5"/><path d="m19.31,8.98c-1.13.44-2.02.47-2.63.42-.79-.07-1.26-.29-2.4-.4-.71-.06-1.29-.05-1.67-.02-.17-.61-.33-1.23-.5-1.84-.22-.79.24-1.61,1.04-1.83l3.35-.92c.8-.21,1.62.26,1.84,1.06l.92,3.35c.01.06.03.13.04.19Z" fill="#fff176" stroke="#263238" stroke-linecap="round" stroke-linejoin="round" stroke-width="1.5"/></g></svg>